<?xml version="1.0" encoding="UTF-8"?>
<svg xmlns="http://www.w3.org/2000/svg" width="2397.6" height="260" viewBox="0 0 2397.6 260">
  <rect width="100%" height="100%" fill="#ffffff"/>
  <text x="24" y="18" font-family="Segoe UI,system-ui,sans-serif" font-size="14" font-weight="600" fill="#0f172a">Paint Market — UI element tree (by id)</text>
  <text x="24" y="34" font-family="Segoe UI,system-ui,sans-serif" font-size="10" fill="#64748b">Generated 2026-05-20 · node scripts/build-objects-tree.mjs</text>
  <g transform="translate(24, 48)">
    <path d="M 1174.8 28 V 36 H 181.8 V 44" fill="none" stroke="#cbd5e1" stroke-width="1.2"/>
    <path d="M 181.8 72 V 80 H 50 V 88" fill="none" stroke="#cbd5e1" stroke-width="1.2"/>
    <path d="M 181.8 72 V 80 H 164 V 88" fill="none" stroke="#cbd5e1" stroke-width="1.2"/>
    <path d="M 181.8 72 V 80 H 295.8 V 88" fill="none" stroke="#cbd5e1" stroke-width="1.2"/>
    <path d="M 1174.8 28 V 36 H 504.7 V 44" fill="none" stroke="#cbd5e1" stroke-width="1.2"/>
    <path d="M 504.7 72 V 80 H 439.20000000000005 V 88" fill="none" stroke="#cbd5e1" stroke-width="1.2"/>
    <path d="M 504.7 72 V 80 H 573.3 V 88" fill="none" stroke="#cbd5e1" stroke-width="1.2"/>
    <path d="M 1174.8 28 V 36 H 891.4999999999998 V 44" fill="none" stroke="#cbd5e1" stroke-width="1.2"/>
    <path d="M 891.4999999999998 72 V 80 H 704.3 V 88" fill="none" stroke="#cbd5e1" stroke-width="1.2"/>
    <path d="M 891.4999999999998 72 V 80 H 832.1999999999999 V 88" fill="none" stroke="#cbd5e1" stroke-width="1.2"/>
    <path d="M 891.4999999999998 72 V 80 H 956.9999999999999 V 88" fill="none" stroke="#cbd5e1" stroke-width="1.2"/>
    <path d="M 891.4999999999998 72 V 80 H 1081.8 V 88" fill="none" stroke="#cbd5e1" stroke-width="1.2"/>
    <path d="M 1174.8 28 V 36 H 1329.8999999999999 V 44" fill="none" stroke="#cbd5e1" stroke-width="1.2"/>
    <path d="M 1329.8999999999999 72 V 80 H 1272.8999999999999 V 88" fill="none" stroke="#cbd5e1" stroke-width="1.2"/>
    <path d="M 1272.8999999999999 116 V 124 H 1215.8999999999999 V 132" fill="none" stroke="#cbd5e1" stroke-width="1.2"/>
    <path d="M 1272.8999999999999 116 V 124 H 1344.6 V 132" fill="none" stroke="#cbd5e1" stroke-width="1.2"/>
    <path d="M 1329.8999999999999 72 V 80 H 1458.6 V 88" fill="none" stroke="#cbd5e1" stroke-width="1.2"/>
    <path d="M 1174.8 28 V 36 H 1936.1 V 44" fill="none" stroke="#cbd5e1" stroke-width="1.2"/>
    <path d="M 1936.1 72 V 80 H 1593.5 V 88" fill="none" stroke="#cbd5e1" stroke-width="1.2"/>
    <path d="M 1936.1 72 V 80 H 1774.1 V 88" fill="none" stroke="#cbd5e1" stroke-width="1.2"/>
    <path d="M 1774.1 116 V 124 H 1761.6999999999998 V 132" fill="none" stroke="#cbd5e1" stroke-width="1.2"/>
    <path d="M 1936.1 72 V 80 H 1954.7 V 88" fill="none" stroke="#cbd5e1" stroke-width="1.2"/>
    <path d="M 1936.1 72 V 80 H 2113.6 V 88" fill="none" stroke="#cbd5e1" stroke-width="1.2"/>
    <path d="M 1936.1 72 V 80 H 2275.6 V 88" fill="none" stroke="#cbd5e1" stroke-width="1.2"/>
    <rect x="1124.8" y="0" width="100" height="28" rx="6" fill="#1e40af" stroke="#2563eb" stroke-width="1.2"/>
    <text x="1174.8" y="18" text-anchor="middle" font-family="Segoe UI,system-ui,sans-serif" font-size="11" fill="#fff">Hub</text>
    <rect x="131.8" y="44" width="100" height="28" rx="6" fill="#f8fafc" stroke="#94a3b8" stroke-width="1.2"/>
    <text x="181.8" y="62" text-anchor="middle" font-family="Segoe UI,system-ui,sans-serif" font-size="11" fill="#0f172a">searchWrap</text>
    <rect x="0" y="88" width="100" height="28" rx="6" fill="#f8fafc" stroke="#94a3b8" stroke-width="1.2"/>
    <text x="50" y="106" text-anchor="middle" font-family="Segoe UI,system-ui,sans-serif" font-size="11" fill="#0f172a">searchInput</text>
    <rect x="114" y="88" width="100" height="28" rx="6" fill="#f8fafc" stroke="#94a3b8" stroke-width="1.2"/>
    <text x="164" y="106" text-anchor="middle" font-family="Segoe UI,system-ui,sans-serif" font-size="11" fill="#0f172a">suggestPanel</text>
    <rect x="228" y="88" width="135.60000000000002" height="28" rx="6" fill="#f8fafc" stroke="#94a3b8" stroke-width="1.2"/>
    <text x="295.8" y="106" text-anchor="middle" font-family="Segoe UI,system-ui,sans-serif" font-size="11" fill="#0f172a">searchMapPricesBtn</text>
    <rect x="454.7" y="44" width="100" height="28" rx="6" fill="#f8fafc" stroke="#94a3b8" stroke-width="1.2"/>
    <text x="504.7" y="62" text-anchor="middle" font-family="Segoe UI,system-ui,sans-serif" font-size="11" fill="#0f172a">phaseBanner</text>
    <rect x="377.6" y="88" width="123.2" height="28" rx="6" fill="#f8fafc" stroke="#94a3b8" stroke-width="1.2"/>
    <text x="439.20000000000005" y="106" text-anchor="middle" font-family="Segoe UI,system-ui,sans-serif" font-size="11" fill="#0f172a">phaseBannerTitle</text>
    <rect x="514.8" y="88" width="117" height="28" rx="6" fill="#f8fafc" stroke="#94a3b8" stroke-width="1.2"/>
    <text x="573.3" y="106" text-anchor="middle" font-family="Segoe UI,system-ui,sans-serif" font-size="11" fill="#0f172a">phaseBannerBody</text>
    <rect x="839.1999999999998" y="44" width="104.60000000000001" height="28" rx="6" fill="#f8fafc" stroke="#94a3b8" stroke-width="1.2"/>
    <text x="891.4999999999998" y="62" text-anchor="middle" font-family="Segoe UI,system-ui,sans-serif" font-size="11" fill="#0f172a">homeAdSection</text>
    <rect x="645.8" y="88" width="117" height="28" rx="6" fill="#f8fafc" stroke="#94a3b8" stroke-width="1.2"/>
    <text x="704.3" y="106" text-anchor="middle" font-family="Segoe UI,system-ui,sans-serif" font-size="11" fill="#0f172a">adCarouselStrip</text>
    <rect x="776.8" y="88" width="110.8" height="28" rx="6" fill="#f8fafc" stroke="#94a3b8" stroke-width="1.2"/>
    <text x="832.1999999999999" y="106" text-anchor="middle" font-family="Segoe UI,system-ui,sans-serif" font-size="11" fill="#0f172a">adCarouselPrev</text>
    <rect x="901.5999999999999" y="88" width="110.8" height="28" rx="6" fill="#f8fafc" stroke="#94a3b8" stroke-width="1.2"/>
    <text x="956.9999999999999" y="106" text-anchor="middle" font-family="Segoe UI,system-ui,sans-serif" font-size="11" fill="#0f172a">adCarouselNext</text>
    <rect x="1026.3999999999999" y="88" width="110.8" height="28" rx="6" fill="#f8fafc" stroke="#94a3b8" stroke-width="1.2"/>
    <text x="1081.8" y="106" text-anchor="middle" font-family="Segoe UI,system-ui,sans-serif" font-size="11" fill="#0f172a">adCarouselDots</text>
    <rect x="1268.3" y="44" width="123.2" height="28" rx="6" fill="#f8fafc" stroke="#94a3b8" stroke-width="1.2"/>
    <text x="1329.8999999999999" y="62" text-anchor="middle" font-family="Segoe UI,system-ui,sans-serif" font-size="11" fill="#0f172a">indexShopsScroll</text>
    <rect x="1222.8999999999999" y="88" width="100" height="28" rx="6" fill="#f8fafc" stroke="#94a3b8" stroke-width="1.2"/>
    <text x="1272.8999999999999" y="106" text-anchor="middle" font-family="Segoe UI,system-ui,sans-serif" font-size="11" fill="#0f172a">shopsSection</text>
    <rect x="1151.1999999999998" y="132" width="129.4" height="28" rx="6" fill="#f8fafc" stroke="#94a3b8" stroke-width="1.2"/>
    <text x="1215.8999999999999" y="150" text-anchor="middle" font-family="Segoe UI,system-ui,sans-serif" font-size="11" fill="#0f172a">shopsSectionTitle</text>
    <rect x="1294.6" y="132" width="100" height="28" rx="6" fill="#f8fafc" stroke="#94a3b8" stroke-width="1.2"/>
    <text x="1344.6" y="150" text-anchor="middle" font-family="Segoe UI,system-ui,sans-serif" font-size="11" fill="#0f172a">shopGrid</text>
    <rect x="1408.6" y="88" width="100" height="28" rx="6" fill="#f8fafc" stroke="#94a3b8" stroke-width="1.2"/>
    <text x="1458.6" y="106" text-anchor="middle" font-family="Segoe UI,system-ui,sans-serif" font-size="11" fill="#0f172a">lockedShops</text>
    <rect x="1862.1" y="44" width="148" height="28" rx="6" fill="#7c3aed" stroke="#6d28d9" stroke-width="1.2"/>
    <text x="1936.1" y="62" text-anchor="middle" font-family="Segoe UI,system-ui,sans-serif" font-size="11" fill="#0f172a">searchPriceMapDialog</text>
    <rect x="1522.6" y="88" width="141.8" height="28" rx="6" fill="#f8fafc" stroke="#94a3b8" stroke-width="1.2"/>
    <text x="1593.5" y="106" text-anchor="middle" font-family="Segoe UI,system-ui,sans-serif" font-size="11" fill="#0f172a">searchPriceMapTitle</text>
    <rect x="1678.3999999999999" y="88" width="191.4" height="28" rx="6" fill="#f8fafc" stroke="#94a3b8" stroke-width="1.2"/>
    <text x="1774.1" y="106" text-anchor="middle" font-family="Segoe UI,system-ui,sans-serif" font-size="11" fill="#0f172a">searchPriceMapAllBrandsWrap</text>
    <rect x="1678.3999999999999" y="132" width="166.6" height="28" rx="6" fill="#f8fafc" stroke="#94a3b8" stroke-width="1.2"/>
    <text x="1761.6999999999998" y="150" text-anchor="middle" font-family="Segoe UI,system-ui,sans-serif" font-size="11" fill="#0f172a">searchPriceMapAllBrands</text>
    <rect x="1883.8" y="88" width="141.8" height="28" rx="6" fill="#f8fafc" stroke="#94a3b8" stroke-width="1.2"/>
    <text x="1954.7" y="106" text-anchor="middle" font-family="Segoe UI,system-ui,sans-serif" font-size="11" fill="#0f172a">searchPriceMapClose</text>
    <rect x="2039.6" y="88" width="148" height="28" rx="6" fill="#f8fafc" stroke="#94a3b8" stroke-width="1.2"/>
    <text x="2113.6" y="106" text-anchor="middle" font-family="Segoe UI,system-ui,sans-serif" font-size="11" fill="#0f172a">searchPriceMapStatus</text>
    <rect x="2201.6" y="88" width="148" height="28" rx="6" fill="#f8fafc" stroke="#94a3b8" stroke-width="1.2"/>
    <text x="2275.6" y="106" text-anchor="middle" font-family="Segoe UI,system-ui,sans-serif" font-size="11" fill="#0f172a">searchPriceMapCanvas</text>
  </g>
</svg>