<?xml version="1.0" encoding="UTF-8"?>
<svg xmlns="http://www.w3.org/2000/svg" width="1454.6" height="216" viewBox="0 0 1454.6 216">
  <rect width="100%" height="100%" fill="#ffffff"/>
  <text x="24" y="18" font-family="Segoe UI,system-ui,sans-serif" font-size="14" font-weight="600" fill="#0f172a">Paint Market — UI element tree (by id)</text>
  <text x="24" y="34" font-family="Segoe UI,system-ui,sans-serif" font-size="10" fill="#64748b">Generated 2026-05-20 · node scripts/build-objects-tree.mjs</text>
  <g transform="translate(24, 48)">
    <path d="M 703.3 28 V 36 H 50 V 44" fill="none" stroke="#cbd5e1" stroke-width="1.2"/>
    <path d="M 703.3 28 V 36 H 164 V 44" fill="none" stroke="#cbd5e1" stroke-width="1.2"/>
    <path d="M 703.3 28 V 36 H 278 V 44" fill="none" stroke="#cbd5e1" stroke-width="1.2"/>
    <path d="M 703.3 28 V 36 H 392 V 44" fill="none" stroke="#cbd5e1" stroke-width="1.2"/>
    <path d="M 703.3 28 V 36 H 506 V 44" fill="none" stroke="#cbd5e1" stroke-width="1.2"/>
    <path d="M 703.3 28 V 36 H 620 V 44" fill="none" stroke="#cbd5e1" stroke-width="1.2"/>
    <path d="M 703.3 28 V 36 H 805.7 V 44" fill="none" stroke="#cbd5e1" stroke-width="1.2"/>
    <path d="M 805.7 72 V 80 H 734 V 88" fill="none" stroke="#cbd5e1" stroke-width="1.2"/>
    <path d="M 805.7 72 V 80 H 862.7 V 88" fill="none" stroke="#cbd5e1" stroke-width="1.2"/>
    <path d="M 703.3 28 V 36 H 1003 V 44" fill="none" stroke="#cbd5e1" stroke-width="1.2"/>
    <path d="M 1003 72 V 80 H 1003 V 88" fill="none" stroke="#cbd5e1" stroke-width="1.2"/>
    <path d="M 703.3 28 V 36 H 1128.6 V 44" fill="none" stroke="#cbd5e1" stroke-width="1.2"/>
    <path d="M 703.3 28 V 36 H 1242.6 V 44" fill="none" stroke="#cbd5e1" stroke-width="1.2"/>
    <path d="M 703.3 28 V 36 H 1356.6 V 44" fill="none" stroke="#cbd5e1" stroke-width="1.2"/>
    <rect x="651" y="0" width="104.60000000000001" height="28" rx="6" fill="#1e40af" stroke="#2563eb" stroke-width="1.2"/>
    <text x="703.3" y="18" text-anchor="middle" font-family="Segoe UI,system-ui,sans-serif" font-size="11" fill="#fff">Shop showroom</text>
    <rect x="0" y="44" width="100" height="28" rx="6" fill="#f8fafc" stroke="#94a3b8" stroke-width="1.2"/>
    <text x="50" y="62" text-anchor="middle" font-family="Segoe UI,system-ui,sans-serif" font-size="11" fill="#0f172a">shopName</text>
    <rect x="114" y="44" width="100" height="28" rx="6" fill="#f8fafc" stroke="#94a3b8" stroke-width="1.2"/>
    <text x="164" y="62" text-anchor="middle" font-family="Segoe UI,system-ui,sans-serif" font-size="11" fill="#0f172a">shopFavBtn</text>
    <rect x="228" y="44" width="100" height="28" rx="6" fill="#f8fafc" stroke="#94a3b8" stroke-width="1.2"/>
    <text x="278" y="62" text-anchor="middle" font-family="Segoe UI,system-ui,sans-serif" font-size="11" fill="#0f172a">heroImg</text>
    <rect x="342" y="44" width="100" height="28" rx="6" fill="#f8fafc" stroke="#94a3b8" stroke-width="1.2"/>
    <text x="392" y="62" text-anchor="middle" font-family="Segoe UI,system-ui,sans-serif" font-size="11" fill="#0f172a">locationText</text>
    <rect x="456" y="44" width="100" height="28" rx="6" fill="#f8fafc" stroke="#94a3b8" stroke-width="1.2"/>
    <text x="506" y="62" text-anchor="middle" font-family="Segoe UI,system-ui,sans-serif" font-size="11" fill="#0f172a">addressText</text>
    <rect x="570" y="44" width="100" height="28" rx="6" fill="#f8fafc" stroke="#94a3b8" stroke-width="1.2"/>
    <text x="620" y="62" text-anchor="middle" font-family="Segoe UI,system-ui,sans-serif" font-size="11" fill="#0f172a">lastUpdated</text>
    <rect x="755.7" y="44" width="100" height="28" rx="6" fill="#f8fafc" stroke="#94a3b8" stroke-width="1.2"/>
    <text x="805.7" y="62" text-anchor="middle" font-family="Segoe UI,system-ui,sans-serif" font-size="11" fill="#0f172a">shopMapInfo</text>
    <rect x="684" y="88" width="100" height="28" rx="6" fill="#f8fafc" stroke="#94a3b8" stroke-width="1.2"/>
    <text x="734" y="106" text-anchor="middle" font-family="Segoe UI,system-ui,sans-serif" font-size="11" fill="#0f172a">openExtMap</text>
    <rect x="798" y="88" width="129.4" height="28" rx="6" fill="#f8fafc" stroke="#94a3b8" stroke-width="1.2"/>
    <text x="862.7" y="106" text-anchor="middle" font-family="Segoe UI,system-ui,sans-serif" font-size="11" fill="#0f172a">openDirectionsMap</text>
    <rect x="944.5" y="44" width="117" height="28" rx="6" fill="#f8fafc" stroke="#94a3b8" stroke-width="1.2"/>
    <text x="1003" y="62" text-anchor="middle" font-family="Segoe UI,system-ui,sans-serif" font-size="11" fill="#0f172a">popularPickWrap</text>
    <rect x="941.4" y="88" width="123.2" height="28" rx="6" fill="#f8fafc" stroke="#94a3b8" stroke-width="1.2"/>
    <text x="1003" y="106" text-anchor="middle" font-family="Segoe UI,system-ui,sans-serif" font-size="11" fill="#0f172a">popularPickStrip</text>
    <rect x="1078.6" y="44" width="100" height="28" rx="6" fill="#f8fafc" stroke="#94a3b8" stroke-width="1.2"/>
    <text x="1128.6" y="62" text-anchor="middle" font-family="Segoe UI,system-ui,sans-serif" font-size="11" fill="#0f172a">errorBox</text>
    <rect x="1192.6" y="44" width="100" height="28" rx="6" fill="#f8fafc" stroke="#94a3b8" stroke-width="1.2"/>
    <text x="1242.6" y="62" text-anchor="middle" font-family="Segoe UI,system-ui,sans-serif" font-size="11" fill="#0f172a">sortSelect</text>
    <rect x="1306.6" y="44" width="100" height="28" rx="6" fill="#f8fafc" stroke="#94a3b8" stroke-width="1.2"/>
    <text x="1356.6" y="62" text-anchor="middle" font-family="Segoe UI,system-ui,sans-serif" font-size="11" fill="#0f172a">listingMount</text>
  </g>
</svg>