<?xml version="1.0" encoding="UTF-8"?>
<svg xmlns="http://www.w3.org/2000/svg" width="5351.799999999999" height="260" viewBox="0 0 5351.799999999999 260">
  <rect width="100%" height="100%" fill="#ffffff"/>
  <text x="24" y="18" font-family="Segoe UI,system-ui,sans-serif" font-size="14" font-weight="600" fill="#0f172a">Paint Market — UI element tree (by id)</text>
  <text x="24" y="34" font-family="Segoe UI,system-ui,sans-serif" font-size="10" fill="#64748b">Generated 2026-05-20 · node scripts/build-objects-tree.mjs</text>
  <g transform="translate(24, 48)">
    <path d="M 2651.8999999999996 28 V 36 H 70.9 V 44" fill="none" stroke="#cbd5e1" stroke-width="1.2"/>
    <path d="M 70.9 72 V 80 H 70.9 V 88" fill="none" stroke="#cbd5e1" stroke-width="1.2"/>
    <path d="M 2651.8999999999996 28 V 36 H 694.6000000000001 V 44" fill="none" stroke="#cbd5e1" stroke-width="1.2"/>
    <path d="M 694.6000000000001 72 V 80 H 694.6 V 88" fill="none" stroke="#cbd5e1" stroke-width="1.2"/>
    <path d="M 694.6 116 V 124 H 205.8 V 132" fill="none" stroke="#cbd5e1" stroke-width="1.2"/>
    <path d="M 694.6 116 V 124 H 334.5 V 132" fill="none" stroke="#cbd5e1" stroke-width="1.2"/>
    <path d="M 694.6 116 V 124 H 487.20000000000005 V 132" fill="none" stroke="#cbd5e1" stroke-width="1.2"/>
    <path d="M 694.6 116 V 124 H 646.1 V 132" fill="none" stroke="#cbd5e1" stroke-width="1.2"/>
    <path d="M 694.6 116 V 124 H 811.2 V 132" fill="none" stroke="#cbd5e1" stroke-width="1.2"/>
    <path d="M 694.6 116 V 124 H 955.4 V 132" fill="none" stroke="#cbd5e1" stroke-width="1.2"/>
    <path d="M 694.6 116 V 124 H 1069.4 V 132" fill="none" stroke="#cbd5e1" stroke-width="1.2"/>
    <path d="M 694.6 116 V 124 H 1183.4 V 132" fill="none" stroke="#cbd5e1" stroke-width="1.2"/>
    <path d="M 2651.8999999999996 28 V 36 H 2260.2000000000003 V 44" fill="none" stroke="#cbd5e1" stroke-width="1.2"/>
    <path d="M 2260.2000000000003 72 V 80 H 1312.1000000000001 V 88" fill="none" stroke="#cbd5e1" stroke-width="1.2"/>
    <path d="M 2260.2000000000003 72 V 80 H 1440.8000000000002 V 88" fill="none" stroke="#cbd5e1" stroke-width="1.2"/>
    <path d="M 2260.2000000000003 72 V 80 H 1560.2000000000003 V 88" fill="none" stroke="#cbd5e1" stroke-width="1.2"/>
    <path d="M 2260.2000000000003 72 V 80 H 1700.5000000000002 V 88" fill="none" stroke="#cbd5e1" stroke-width="1.2"/>
    <path d="M 2260.2000000000003 72 V 80 H 1837.7 V 88" fill="none" stroke="#cbd5e1" stroke-width="1.2"/>
    <path d="M 2260.2000000000003 72 V 80 H 1978 V 88" fill="none" stroke="#cbd5e1" stroke-width="1.2"/>
    <path d="M 2260.2000000000003 72 V 80 H 2124.5 V 88" fill="none" stroke="#cbd5e1" stroke-width="1.2"/>
    <path d="M 2260.2000000000003 72 V 80 H 2735 V 88" fill="none" stroke="#cbd5e1" stroke-width="1.2"/>
    <path d="M 2735 116 V 124 H 2247 V 132" fill="none" stroke="#cbd5e1" stroke-width="1.2"/>
    <path d="M 2735 116 V 124 H 2378.8 V 132" fill="none" stroke="#cbd5e1" stroke-width="1.2"/>
    <path d="M 2735 116 V 124 H 2510.6 V 132" fill="none" stroke="#cbd5e1" stroke-width="1.2"/>
    <path d="M 2735 116 V 124 H 2639.2999999999997 V 132" fill="none" stroke="#cbd5e1" stroke-width="1.2"/>
    <path d="M 2735 116 V 124 H 2792 V 132" fill="none" stroke="#cbd5e1" stroke-width="1.2"/>
    <path d="M 2735 116 V 124 H 2944.7 V 132" fill="none" stroke="#cbd5e1" stroke-width="1.2"/>
    <path d="M 2735 116 V 124 H 3091.2000000000003 V 132" fill="none" stroke="#cbd5e1" stroke-width="1.2"/>
    <path d="M 2735 116 V 124 H 3223 V 132" fill="none" stroke="#cbd5e1" stroke-width="1.2"/>
    <path d="M 2651.8999999999996 28 V 36 H 3602.8999999999996 V 44" fill="none" stroke="#cbd5e1" stroke-width="1.2"/>
    <path d="M 3602.8999999999996 72 V 80 H 3361 V 88" fill="none" stroke="#cbd5e1" stroke-width="1.2"/>
    <path d="M 3602.8999999999996 72 V 80 H 3683.8999999999996 V 88" fill="none" stroke="#cbd5e1" stroke-width="1.2"/>
    <path d="M 3683.8999999999996 116 V 124 H 3499 V 132" fill="none" stroke="#cbd5e1" stroke-width="1.2"/>
    <path d="M 3683.8999999999996 116 V 124 H 3613 V 132" fill="none" stroke="#cbd5e1" stroke-width="1.2"/>
    <path d="M 3683.8999999999996 116 V 124 H 3729.3 V 132" fill="none" stroke="#cbd5e1" stroke-width="1.2"/>
    <path d="M 3683.8999999999996 116 V 124 H 3857.2 V 132" fill="none" stroke="#cbd5e1" stroke-width="1.2"/>
    <path d="M 2651.8999999999996 28 V 36 H 4039.7999999999993 V 44" fill="none" stroke="#cbd5e1" stroke-width="1.2"/>
    <path d="M 4039.7999999999993 72 V 80 H 4039.7999999999993 V 88" fill="none" stroke="#cbd5e1" stroke-width="1.2"/>
    <path d="M 4039.7999999999993 116 V 124 H 3982.7999999999997 V 132" fill="none" stroke="#cbd5e1" stroke-width="1.2"/>
    <path d="M 4039.7999999999993 116 V 124 H 4096.799999999999 V 132" fill="none" stroke="#cbd5e1" stroke-width="1.2"/>
    <path d="M 2651.8999999999996 28 V 36 H 4267.799999999999 V 44" fill="none" stroke="#cbd5e1" stroke-width="1.2"/>
    <path d="M 4267.799999999999 72 V 80 H 4267.799999999999 V 88" fill="none" stroke="#cbd5e1" stroke-width="1.2"/>
    <path d="M 4267.799999999999 116 V 124 H 4210.799999999999 V 132" fill="none" stroke="#cbd5e1" stroke-width="1.2"/>
    <path d="M 4267.799999999999 116 V 124 H 4324.799999999999 V 132" fill="none" stroke="#cbd5e1" stroke-width="1.2"/>
    <path d="M 2651.8999999999996 28 V 36 H 4846.299999999999 V 44" fill="none" stroke="#cbd5e1" stroke-width="1.2"/>
    <path d="M 4846.299999999999 72 V 80 H 4846.299999999999 V 88" fill="none" stroke="#cbd5e1" stroke-width="1.2"/>
    <path d="M 4846.299999999999 116 V 124 H 4438.799999999999 V 132" fill="none" stroke="#cbd5e1" stroke-width="1.2"/>
    <path d="M 4846.299999999999 116 V 124 H 4552.799999999999 V 132" fill="none" stroke="#cbd5e1" stroke-width="1.2"/>
    <path d="M 4846.299999999999 116 V 124 H 4666.799999999999 V 132" fill="none" stroke="#cbd5e1" stroke-width="1.2"/>
    <path d="M 4846.299999999999 116 V 124 H 4780.799999999999 V 132" fill="none" stroke="#cbd5e1" stroke-width="1.2"/>
    <path d="M 4846.299999999999 116 V 124 H 4894.799999999999 V 132" fill="none" stroke="#cbd5e1" stroke-width="1.2"/>
    <path d="M 4846.299999999999 116 V 124 H 5008.799999999999 V 132" fill="none" stroke="#cbd5e1" stroke-width="1.2"/>
    <path d="M 4846.299999999999 116 V 124 H 5122.799999999999 V 132" fill="none" stroke="#cbd5e1" stroke-width="1.2"/>
    <path d="M 4846.299999999999 116 V 124 H 5245.299999999999 V 132" fill="none" stroke="#cbd5e1" stroke-width="1.2"/>
    <rect x="2601.8999999999996" y="0" width="100" height="28" rx="6" fill="#0f766e" stroke="#0d9488" stroke-width="1.2"/>
    <text x="2651.8999999999996" y="18" text-anchor="middle" font-family="Segoe UI,system-ui,sans-serif" font-size="11" fill="#fff">Paint Market</text>
    <rect x="3.0999999999999943" y="44" width="135.60000000000002" height="28" rx="6" fill="#475569" stroke="#94a3b8" stroke-width="1.2"/>
    <text x="70.9" y="62" text-anchor="middle" font-family="Segoe UI,system-ui,sans-serif" font-size="11" fill="#0f172a">Global (common.js)</text>
    <text x="70.9" y="83" text-anchor="middle" font-family="Consolas,monospace" font-size="9" fill="#64748b">#common.js</text>
    <rect x="0" y="88" width="141.8" height="28" rx="6" fill="#7c3aed" stroke="#6d28d9" stroke-width="1.2"/>
    <text x="70.9" y="106" text-anchor="middle" font-family="Segoe UI,system-ui,sans-serif" font-size="11" fill="#0f172a">pmGeoSettingsDialog</text>
    <rect x="644.6000000000001" y="44" width="100" height="28" rx="6" fill="#1e40af" stroke="#2563eb" stroke-width="1.2"/>
    <text x="694.6000000000001" y="62" text-anchor="middle" font-family="Segoe UI,system-ui,sans-serif" font-size="11" fill="#fff">Admin panel</text>
    <rect x="617.5" y="88" width="154.20000000000002" height="28" rx="6" fill="#f8fafc" stroke="#94a3b8" stroke-width="1.2"/>
    <text x="694.6" y="106" text-anchor="middle" font-family="Segoe UI,system-ui,sans-serif" font-size="11" fill="#0f172a">Main surface (11 ids)</text>
    <text x="694.6" y="127" text-anchor="middle" font-family="Consolas,monospace" font-size="9" fill="#64748b">#admin.html-main</text>
    <rect x="155.8" y="132" width="100" height="28" rx="6" fill="#f8fafc" stroke="#94a3b8" stroke-width="1.2"/>
    <text x="205.8" y="150" text-anchor="middle" font-family="Segoe UI,system-ui,sans-serif" font-size="11" fill="#0f172a">logoutBtn</text>
    <rect x="269.8" y="132" width="129.4" height="28" rx="6" fill="#f8fafc" stroke="#94a3b8" stroke-width="1.2"/>
    <text x="334.5" y="150" text-anchor="middle" font-family="Segoe UI,system-ui,sans-serif" font-size="11" fill="#0f172a">customerToggleBtn</text>
    <rect x="413.20000000000005" y="132" width="148" height="28" rx="6" fill="#f8fafc" stroke="#94a3b8" stroke-width="1.2"/>
    <text x="487.20000000000005" y="150" text-anchor="middle" font-family="Segoe UI,system-ui,sans-serif" font-size="11" fill="#0f172a">customerToggleStatus</text>
    <rect x="575.2" y="132" width="141.8" height="28" rx="6" fill="#f8fafc" stroke="#94a3b8" stroke-width="1.2"/>
    <text x="646.1" y="150" text-anchor="middle" font-family="Segoe UI,system-ui,sans-serif" font-size="11" fill="#0f172a">shopListLuToggleBtn</text>
    <rect x="731" y="132" width="160.4" height="28" rx="6" fill="#f8fafc" stroke="#94a3b8" stroke-width="1.2"/>
    <text x="811.2" y="150" text-anchor="middle" font-family="Segoe UI,system-ui,sans-serif" font-size="11" fill="#0f172a">shopListLuToggleStatus</text>
    <rect x="905.4" y="132" width="100" height="28" rx="6" fill="#f8fafc" stroke="#94a3b8" stroke-width="1.2"/>
    <text x="955.4" y="150" text-anchor="middle" font-family="Segoe UI,system-ui,sans-serif" font-size="11" fill="#0f172a">brandList</text>
    <rect x="1019.4" y="132" width="100" height="28" rx="6" fill="#f8fafc" stroke="#94a3b8" stroke-width="1.2"/>
    <text x="1069.4" y="150" text-anchor="middle" font-family="Segoe UI,system-ui,sans-serif" font-size="11" fill="#0f172a">adMedia</text>
    <rect x="1133.4" y="132" width="100" height="28" rx="6" fill="#f8fafc" stroke="#94a3b8" stroke-width="1.2"/>
    <text x="1183.4" y="150" text-anchor="middle" font-family="Segoe UI,system-ui,sans-serif" font-size="11" fill="#0f172a">adKind</text>
    <rect x="2204.8" y="44" width="110.8" height="28" rx="6" fill="#1e40af" stroke="#2563eb" stroke-width="1.2"/>
    <text x="2260.2000000000003" y="62" text-anchor="middle" font-family="Segoe UI,system-ui,sans-serif" font-size="11" fill="#fff">Shop dashboard</text>
    <rect x="1247.4" y="88" width="129.4" height="28" rx="6" fill="#7c3aed" stroke="#6d28d9" stroke-width="1.2"/>
    <text x="1312.1000000000001" y="106" text-anchor="middle" font-family="Segoe UI,system-ui,sans-serif" font-size="11" fill="#0f172a">dashProfileDialog</text>
    <rect x="1390.8000000000002" y="88" width="100" height="28" rx="6" fill="#7c3aed" stroke="#6d28d9" stroke-width="1.2"/>
    <text x="1440.8000000000002" y="106" text-anchor="middle" font-family="Segoe UI,system-ui,sans-serif" font-size="11" fill="#0f172a">brandDialog</text>
    <rect x="1504.8000000000002" y="88" width="110.8" height="28" rx="6" fill="#7c3aed" stroke="#6d28d9" stroke-width="1.2"/>
    <text x="1560.2000000000003" y="106" text-anchor="middle" font-family="Segoe UI,system-ui,sans-serif" font-size="11" fill="#0f172a">categoryDialog</text>
    <rect x="1629.6000000000001" y="88" width="141.8" height="28" rx="6" fill="#7c3aed" stroke="#6d28d9" stroke-width="1.2"/>
    <text x="1700.5000000000002" y="106" text-anchor="middle" font-family="Segoe UI,system-ui,sans-serif" font-size="11" fill="#0f172a">productPickerDialog</text>
    <rect x="1785.4" y="88" width="104.60000000000001" height="28" rx="6" fill="#7c3aed" stroke="#6d28d9" stroke-width="1.2"/>
    <text x="1837.7" y="106" text-anchor="middle" font-family="Segoe UI,system-ui,sans-serif" font-size="11" fill="#0f172a">productDialog</text>
    <rect x="1904" y="88" width="148" height="28" rx="6" fill="#7c3aed" stroke="#6d28d9" stroke-width="1.2"/>
    <text x="1978" y="106" text-anchor="middle" font-family="Segoe UI,system-ui,sans-serif" font-size="11" fill="#0f172a">dashPriceQuickDialog</text>
    <rect x="2066" y="88" width="117" height="28" rx="6" fill="#7c3aed" stroke="#6d28d9" stroke-width="1.2"/>
    <text x="2124.5" y="106" text-anchor="middle" font-family="Segoe UI,system-ui,sans-serif" font-size="11" fill="#0f172a">ralPickerDialog</text>
    <rect x="2661" y="88" width="148" height="28" rx="6" fill="#f8fafc" stroke="#94a3b8" stroke-width="1.2"/>
    <text x="2735" y="106" text-anchor="middle" font-family="Segoe UI,system-ui,sans-serif" font-size="11" fill="#0f172a">Main surface (8 ids)</text>
    <text x="2735" y="127" text-anchor="middle" font-family="Consolas,monospace" font-size="9" fill="#64748b">#dashboard.html-main</text>
    <rect x="2197" y="132" width="100" height="28" rx="6" fill="#f8fafc" stroke="#94a3b8" stroke-width="1.2"/>
    <text x="2247" y="150" text-anchor="middle" font-family="Segoe UI,system-ui,sans-serif" font-size="11" fill="#0f172a">shopTitle</text>
    <rect x="2311" y="132" width="135.60000000000002" height="28" rx="6" fill="#f8fafc" stroke="#94a3b8" stroke-width="1.2"/>
    <text x="2378.8" y="150" text-anchor="middle" font-family="Segoe UI,system-ui,sans-serif" font-size="11" fill="#0f172a">dashEditProfileBtn</text>
    <rect x="2460.6" y="132" width="100" height="28" rx="6" fill="#f8fafc" stroke="#94a3b8" stroke-width="1.2"/>
    <text x="2510.6" y="150" text-anchor="middle" font-family="Segoe UI,system-ui,sans-serif" font-size="11" fill="#0f172a">logoutBtn</text>
    <rect x="2574.6" y="132" width="129.4" height="28" rx="6" fill="#f8fafc" stroke="#94a3b8" stroke-width="1.2"/>
    <text x="2639.2999999999997" y="150" text-anchor="middle" font-family="Segoe UI,system-ui,sans-serif" font-size="11" fill="#0f172a">dashAddProductBtn</text>
    <rect x="2718" y="132" width="148" height="28" rx="6" fill="#f8fafc" stroke="#94a3b8" stroke-width="1.2"/>
    <text x="2792" y="150" text-anchor="middle" font-family="Segoe UI,system-ui,sans-serif" font-size="11" fill="#0f172a">dashUpdateProductBtn</text>
    <rect x="2880" y="132" width="129.4" height="28" rx="6" fill="#f8fafc" stroke="#94a3b8" stroke-width="1.2"/>
    <text x="2944.7" y="150" text-anchor="middle" font-family="Segoe UI,system-ui,sans-serif" font-size="11" fill="#0f172a">dashRecentSection</text>
    <rect x="3023.4" y="132" width="135.60000000000002" height="28" rx="6" fill="#f8fafc" stroke="#94a3b8" stroke-width="1.2"/>
    <text x="3091.2000000000003" y="150" text-anchor="middle" font-family="Segoe UI,system-ui,sans-serif" font-size="11" fill="#0f172a">dashCatalogSection</text>
    <rect x="3173" y="132" width="100" height="28" rx="6" fill="#f8fafc" stroke="#94a3b8" stroke-width="1.2"/>
    <text x="3223" y="150" text-anchor="middle" font-family="Segoe UI,system-ui,sans-serif" font-size="11" fill="#0f172a">toastTpl</text>
    <rect x="3552.8999999999996" y="44" width="100" height="28" rx="6" fill="#1e40af" stroke="#2563eb" stroke-width="1.2"/>
    <text x="3602.8999999999996" y="62" text-anchor="middle" font-family="Segoe UI,system-ui,sans-serif" font-size="11" fill="#fff">Hub</text>
    <rect x="3287" y="88" width="148" height="28" rx="6" fill="#7c3aed" stroke="#6d28d9" stroke-width="1.2"/>
    <text x="3361" y="106" text-anchor="middle" font-family="Segoe UI,system-ui,sans-serif" font-size="11" fill="#0f172a">searchPriceMapDialog</text>
    <rect x="3609.8999999999996" y="88" width="148" height="28" rx="6" fill="#f8fafc" stroke="#94a3b8" stroke-width="1.2"/>
    <text x="3683.8999999999996" y="106" text-anchor="middle" font-family="Segoe UI,system-ui,sans-serif" font-size="11" fill="#0f172a">Main surface (4 ids)</text>
    <text x="3683.8999999999996" y="127" text-anchor="middle" font-family="Consolas,monospace" font-size="9" fill="#64748b">#index.html-main</text>
    <rect x="3449" y="132" width="100" height="28" rx="6" fill="#f8fafc" stroke="#94a3b8" stroke-width="1.2"/>
    <text x="3499" y="150" text-anchor="middle" font-family="Segoe UI,system-ui,sans-serif" font-size="11" fill="#0f172a">searchWrap</text>
    <rect x="3563" y="132" width="100" height="28" rx="6" fill="#f8fafc" stroke="#94a3b8" stroke-width="1.2"/>
    <text x="3613" y="150" text-anchor="middle" font-family="Segoe UI,system-ui,sans-serif" font-size="11" fill="#0f172a">phaseBanner</text>
    <rect x="3677" y="132" width="104.60000000000001" height="28" rx="6" fill="#f8fafc" stroke="#94a3b8" stroke-width="1.2"/>
    <text x="3729.3" y="150" text-anchor="middle" font-family="Segoe UI,system-ui,sans-serif" font-size="11" fill="#0f172a">homeAdSection</text>
    <rect x="3795.6" y="132" width="123.2" height="28" rx="6" fill="#f8fafc" stroke="#94a3b8" stroke-width="1.2"/>
    <text x="3857.2" y="150" text-anchor="middle" font-family="Segoe UI,system-ui,sans-serif" font-size="11" fill="#0f172a">indexShopsScroll</text>
    <rect x="3989.7999999999993" y="44" width="100" height="28" rx="6" fill="#1e40af" stroke="#2563eb" stroke-width="1.2"/>
    <text x="4039.7999999999993" y="62" text-anchor="middle" font-family="Segoe UI,system-ui,sans-serif" font-size="11" fill="#fff">Shop login</text>
    <rect x="3965.7999999999993" y="88" width="148" height="28" rx="6" fill="#f8fafc" stroke="#94a3b8" stroke-width="1.2"/>
    <text x="4039.7999999999993" y="106" text-anchor="middle" font-family="Segoe UI,system-ui,sans-serif" font-size="11" fill="#0f172a">Main surface (2 ids)</text>
    <text x="4039.7999999999993" y="127" text-anchor="middle" font-family="Consolas,monospace" font-size="9" fill="#64748b">#login.html-main</text>
    <rect x="3932.7999999999997" y="132" width="100" height="28" rx="6" fill="#f8fafc" stroke="#94a3b8" stroke-width="1.2"/>
    <text x="3982.7999999999997" y="150" text-anchor="middle" font-family="Segoe UI,system-ui,sans-serif" font-size="11" fill="#0f172a">form</text>
    <rect x="4046.7999999999997" y="132" width="100" height="28" rx="6" fill="#f8fafc" stroke="#94a3b8" stroke-width="1.2"/>
    <text x="4096.799999999999" y="150" text-anchor="middle" font-family="Segoe UI,system-ui,sans-serif" font-size="11" fill="#0f172a">error</text>
    <rect x="4215.499999999999" y="44" width="104.60000000000001" height="28" rx="6" fill="#1e40af" stroke="#2563eb" stroke-width="1.2"/>
    <text x="4267.799999999999" y="62" text-anchor="middle" font-family="Segoe UI,system-ui,sans-serif" font-size="11" fill="#fff">Shop register</text>
    <rect x="4193.799999999999" y="88" width="148" height="28" rx="6" fill="#f8fafc" stroke="#94a3b8" stroke-width="1.2"/>
    <text x="4267.799999999999" y="106" text-anchor="middle" font-family="Segoe UI,system-ui,sans-serif" font-size="11" fill="#0f172a">Main surface (2 ids)</text>
    <text x="4267.799999999999" y="127" text-anchor="middle" font-family="Consolas,monospace" font-size="9" fill="#64748b">#register.html-main</text>
    <rect x="4160.799999999999" y="132" width="100" height="28" rx="6" fill="#f8fafc" stroke="#94a3b8" stroke-width="1.2"/>
    <text x="4210.799999999999" y="150" text-anchor="middle" font-family="Segoe UI,system-ui,sans-serif" font-size="11" fill="#0f172a">form</text>
    <rect x="4274.799999999999" y="132" width="100" height="28" rx="6" fill="#f8fafc" stroke="#94a3b8" stroke-width="1.2"/>
    <text x="4324.799999999999" y="150" text-anchor="middle" font-family="Segoe UI,system-ui,sans-serif" font-size="11" fill="#0f172a">error</text>
    <rect x="4793.999999999999" y="44" width="104.60000000000001" height="28" rx="6" fill="#1e40af" stroke="#2563eb" stroke-width="1.2"/>
    <text x="4846.299999999999" y="62" text-anchor="middle" font-family="Segoe UI,system-ui,sans-serif" font-size="11" fill="#fff">Shop showroom</text>
    <rect x="4769.199999999999" y="88" width="154.20000000000002" height="28" rx="6" fill="#f8fafc" stroke="#94a3b8" stroke-width="1.2"/>
    <text x="4846.299999999999" y="106" text-anchor="middle" font-family="Segoe UI,system-ui,sans-serif" font-size="11" fill="#0f172a">Main surface (11 ids)</text>
    <text x="4846.299999999999" y="127" text-anchor="middle" font-family="Consolas,monospace" font-size="9" fill="#64748b">#shop.html-main</text>
    <rect x="4388.799999999999" y="132" width="100" height="28" rx="6" fill="#f8fafc" stroke="#94a3b8" stroke-width="1.2"/>
    <text x="4438.799999999999" y="150" text-anchor="middle" font-family="Segoe UI,system-ui,sans-serif" font-size="11" fill="#0f172a">shopName</text>
    <rect x="4502.799999999999" y="132" width="100" height="28" rx="6" fill="#f8fafc" stroke="#94a3b8" stroke-width="1.2"/>
    <text x="4552.799999999999" y="150" text-anchor="middle" font-family="Segoe UI,system-ui,sans-serif" font-size="11" fill="#0f172a">shopFavBtn</text>
    <rect x="4616.799999999999" y="132" width="100" height="28" rx="6" fill="#f8fafc" stroke="#94a3b8" stroke-width="1.2"/>
    <text x="4666.799999999999" y="150" text-anchor="middle" font-family="Segoe UI,system-ui,sans-serif" font-size="11" fill="#0f172a">heroImg</text>
    <rect x="4730.799999999999" y="132" width="100" height="28" rx="6" fill="#f8fafc" stroke="#94a3b8" stroke-width="1.2"/>
    <text x="4780.799999999999" y="150" text-anchor="middle" font-family="Segoe UI,system-ui,sans-serif" font-size="11" fill="#0f172a">locationText</text>
    <rect x="4844.799999999999" y="132" width="100" height="28" rx="6" fill="#f8fafc" stroke="#94a3b8" stroke-width="1.2"/>
    <text x="4894.799999999999" y="150" text-anchor="middle" font-family="Segoe UI,system-ui,sans-serif" font-size="11" fill="#0f172a">addressText</text>
    <rect x="4958.799999999999" y="132" width="100" height="28" rx="6" fill="#f8fafc" stroke="#94a3b8" stroke-width="1.2"/>
    <text x="5008.799999999999" y="150" text-anchor="middle" font-family="Segoe UI,system-ui,sans-serif" font-size="11" fill="#0f172a">lastUpdated</text>
    <rect x="5072.799999999999" y="132" width="100" height="28" rx="6" fill="#f8fafc" stroke="#94a3b8" stroke-width="1.2"/>
    <text x="5122.799999999999" y="150" text-anchor="middle" font-family="Segoe UI,system-ui,sans-serif" font-size="11" fill="#0f172a">shopMapInfo</text>
    <rect x="5186.799999999999" y="132" width="117" height="28" rx="6" fill="#f8fafc" stroke="#94a3b8" stroke-width="1.2"/>
    <text x="5245.299999999999" y="150" text-anchor="middle" font-family="Segoe UI,system-ui,sans-serif" font-size="11" fill="#0f172a">popularPickWrap</text>
  </g>
</svg>